# This file uses centimeters as units for non-parametric coordinates.

v 0.000000 0.000000 0.929292
v 0.064825 0.000000 0.927028
v 0.129333 0.000000 0.920248
v 0.193211 0.000000 0.908984
v 0.256148 0.000000 0.893292
v 0.317837 0.000000 0.873248
v 0.377977 0.000000 0.848950
v 0.436276 0.000000 0.820516
v 0.492450 0.000000 0.788084
v 0.546224 0.000000 0.751812
v 0.597337 0.000000 0.711878
v 0.645540 0.000000 0.668476
v 0.690598 0.000000 0.621817
v 0.732292 0.000000 0.572129
v 0.770418 0.000000 0.519653
v 0.804790 0.000000 0.464645
v 0.835242 0.000000 0.407374
v 0.861624 0.000000 0.348118
v 0.883809 0.000000 0.287167
v 0.901688 0.000000 0.224816
v 0.915173 0.000000 0.161369
v 0.924201 0.000000 0.097137
v 0.928725 0.000000 0.032431
v 0.928725 0.000000 -0.032432
v 0.924200 0.000000 -0.097138
v 0.915173 0.000000 -0.161370
v 0.901687 0.000000 -0.224816
v 0.883808 0.000000 -0.287167
v 0.861624 0.000000 -0.348119
v 0.835241 0.000000 -0.407375
v 0.804789 0.000000 -0.464646
v 0.770417 0.000000 -0.519653
v 0.732291 0.000000 -0.572129
v 0.690598 0.000000 -0.621817
v 0.645539 0.000000 -0.668476
v 0.597336 0.000000 -0.711878
v 0.546223 0.000000 -0.751812
v 0.492449 0.000000 -0.788083
v 0.436275 0.000000 -0.820515
v 0.377976 0.000000 -0.848949
v 0.317836 0.000000 -0.873248
v 0.256147 0.000000 -0.893292
v 0.193210 0.000000 -0.908983
v 0.129332 0.000000 -0.920247
v 0.064824 0.000000 -0.927027
v -0.000000 0.000000 -0.929291
v -0.064824 0.000000 -0.927027
v -0.129332 0.000000 -0.920247
v -0.193210 0.000000 -0.908983
v -0.256147 0.000000 -0.893291
v -0.317836 0.000000 -0.873247
v -0.377977 0.000000 -0.848949
v -0.436276 0.000000 -0.820515
v -0.492449 0.000000 -0.788083
v -0.546223 0.000000 -0.751812
v -0.597336 0.000000 -0.711878
v -0.645539 0.000000 -0.668475
v -0.690597 0.000000 -0.621817
v -0.732291 0.000000 -0.572128
v -0.770416 0.000000 -0.519652
v -0.804789 0.000000 -0.464645
v -0.835240 0.000000 -0.407374
v -0.861623 0.000000 -0.348118
v -0.883807 0.000000 -0.287166
v -0.901686 0.000000 -0.224816
v -0.915172 0.000000 -0.161370
v -0.924199 0.000000 -0.097137
v -0.928724 0.000000 -0.032432
v -0.928724 0.000000 0.032432
v -0.924199 0.000000 0.097137
v -0.915172 0.000000 0.161370
v -0.901686 0.000000 0.224816
v -0.883807 0.000000 0.287166
v -0.861623 0.000000 0.348118
v -0.835240 0.000000 0.407374
v -0.804789 0.000000 0.464645
v -0.770416 0.000000 0.519652
v -0.732290 0.000000 0.572128
v -0.690597 0.000000 0.621816
v -0.645539 0.000000 0.668475
v -0.597336 0.000000 0.711877
v -0.546223 0.000000 0.751811
v -0.492448 0.000000 0.788082
v -0.436275 0.000000 0.820514
v -0.377976 0.000000 0.848948
v -0.317836 0.000000 0.873246
v -0.256147 0.000000 0.893290
v -0.193210 0.000000 0.908982
v -0.129332 0.000000 0.920246
v -0.064824 0.000000 0.927026
v 0.000000 0.000000 1.070714
v 0.074690 0.000000 1.068105
v 0.149015 0.000000 1.060293
v 0.222614 0.000000 1.047316
v 0.295129 0.000000 1.029236
v 0.366206 0.000000 1.006141
v 0.435499 0.000000 0.978145
v 0.502670 0.000000 0.945384
v 0.567392 0.000000 0.908016
v 0.629350 0.000000 0.866225
v 0.688242 0.000000 0.820214
v 0.743780 0.000000 0.770206
v 0.795695 0.000000 0.716447
v 0.843734 0.000000 0.659196
v 0.887662 0.000000 0.598735
v 0.927265 0.000000 0.535356
v 0.962351 0.000000 0.469369
v 0.992748 0.000000 0.401096
v 1.018309 0.000000 0.330868
v 1.038908 0.000000 0.259029
v 1.054447 0.000000 0.185927
v 1.064847 0.000000 0.111920
v 1.070061 0.000000 0.037367
v 1.070060 0.000000 -0.037368
v 1.064847 0.000000 -0.111920
v 1.054446 0.000000 -0.185928
v 1.038908 0.000000 -0.259029
v 1.018308 0.000000 -0.330869
v 0.992747 0.000000 -0.401096
v 0.962350 0.000000 -0.469370
v 0.927264 0.000000 -0.535357
v 0.887661 0.000000 -0.598735
v 0.843733 0.000000 -0.659197
v 0.795694 0.000000 -0.716447
v 0.743779 0.000000 -0.770206
v 0.688240 0.000000 -0.820213
v 0.629349 0.000000 -0.866225
v 0.567391 0.000000 -0.908016
v 0.502669 0.000000 -0.945383
v 0.435498 0.000000 -0.978144
v 0.366205 0.000000 -1.006140
v 0.295128 0.000000 -1.029235
v 0.222613 0.000000 -1.047315
v 0.149014 0.000000 -1.060292
v 0.074689 0.000000 -1.068104
v -0.000000 0.000000 -1.070712
v -0.074689 0.000000 -1.068104
v -0.149014 0.000000 -1.060292
v -0.222614 0.000000 -1.047314
v -0.295128 0.000000 -1.029234
v -0.366205 0.000000 -1.006140
v -0.435498 0.000000 -0.978144
v -0.502669 0.000000 -0.945382
v -0.567391 0.000000 -0.908015
v -0.629349 0.000000 -0.866224
v -0.688240 0.000000 -0.820213
v -0.743779 0.000000 -0.770206
v -0.795694 0.000000 -0.716446
v -0.843732 0.000000 -0.659196
v -0.887660 0.000000 -0.598734
v -0.927263 0.000000 -0.535356
v -0.962349 0.000000 -0.469369
v -0.992746 0.000000 -0.401096
v -1.018307 0.000000 -0.330868
v -1.038907 0.000000 -0.259029
v -1.054445 0.000000 -0.185927
v -1.064846 0.000000 -0.111920
v -1.070059 0.000000 -0.037367
v -1.070059 0.000000 0.037367
v -1.064846 0.000000 0.111920
v -1.054445 0.000000 0.185927
v -1.038907 0.000000 0.259028
v -1.018307 0.000000 0.330868
v -0.992746 0.000000 0.401095
v -0.962349 0.000000 0.469369
v -0.927263 0.000000 0.535356
v -0.887660 0.000000 0.598734
v -0.843732 0.000000 0.659196
v -0.795693 0.000000 0.716446
v -0.743778 0.000000 0.770205
v -0.688240 0.000000 0.820212
v -0.629348 0.000000 0.866223
v -0.567390 0.000000 0.908014
v -0.502668 0.000000 0.945382
v -0.435497 0.000000 0.978143
v -0.366205 0.000000 1.006139
v -0.295128 0.000000 1.029233
v -0.222613 0.000000 1.047313
v -0.149014 0.000000 1.060291
v -0.074689 0.000000 1.068102
vt 0.000000 1.000000
vt 0.011111 1.000000
vt 0.022222 1.000000
vt 0.033333 1.000000
vt 0.044444 1.000000
vt 0.055556 1.000000
vt 0.066667 1.000000
vt 0.077778 1.000000
vt 0.088889 1.000000
vt 0.100000 1.000000
vt 0.111111 1.000000
vt 0.122222 1.000000
vt 0.133333 1.000000
vt 0.144444 1.000000
vt 0.155556 1.000000
vt 0.166667 1.000000
vt 0.177778 1.000000
vt 0.188889 1.000000
vt 0.200000 1.000000
vt 0.211111 1.000000
vt 0.222222 1.000000
vt 0.233333 1.000000
vt 0.244444 1.000000
vt 0.255556 1.000000
vt 0.266667 1.000000
vt 0.277778 1.000000
vt 0.288889 1.000000
vt 0.300000 1.000000
vt 0.311111 1.000000
vt 0.322222 1.000000
vt 0.333333 1.000000
vt 0.344444 1.000000
vt 0.355556 1.000000
vt 0.366667 1.000000
vt 0.377778 1.000000
vt 0.388889 1.000000
vt 0.400000 1.000000
vt 0.411111 1.000000
vt 0.422222 1.000000
vt 0.433333 1.000000
vt 0.444444 1.000000
vt 0.455556 1.000000
vt 0.466667 1.000000
vt 0.477778 1.000000
vt 0.488889 1.000000
vt 0.500000 1.000000
vt 0.511111 1.000000
vt 0.522222 1.000000
vt 0.533333 1.000000
vt 0.544445 1.000000
vt 0.555556 1.000000
vt 0.566667 1.000000
vt 0.577778 1.000000
vt 0.588889 1.000000
vt 0.600000 1.000000
vt 0.611111 1.000000
vt 0.622223 1.000000
vt 0.633334 1.000000
vt 0.644445 1.000000
vt 0.655556 1.000000
vt 0.666667 1.000000
vt 0.677778 1.000000
vt 0.688889 1.000000
vt 0.700001 1.000000
vt 0.711112 1.000000
vt 0.722223 1.000000
vt 0.733334 1.000000
vt 0.744445 1.000000
vt 0.755556 1.000000
vt 0.766667 1.000000
vt 0.777779 1.000000
vt 0.788890 1.000000
vt 0.800001 1.000000
vt 0.811112 1.000000
vt 0.822223 1.000000
vt 0.833334 1.000000
vt 0.844445 1.000000
vt 0.855556 1.000000
vt 0.866668 1.000000
vt 0.877779 1.000000
vt 0.888890 1.000000
vt 0.900001 1.000000
vt 0.911112 1.000000
vt 0.922223 1.000000
vt 0.933334 1.000000
vt 0.944446 1.000000
vt 0.955557 1.000000
vt 0.966668 1.000000
vt 0.977779 1.000000
vt 0.988890 1.000000
vt 1.000001 1.000000
vt 0.000000 0.050000
vt 0.011111 0.050000
vt 0.022222 0.050000
vt 0.033333 0.050000
vt 0.044444 0.050000
vt 0.055556 0.050000
vt 0.066667 0.050000
vt 0.077778 0.050000
vt 0.088889 0.050000
vt 0.100000 0.050000
vt 0.111111 0.050000
vt 0.122222 0.050000
vt 0.133333 0.050000
vt 0.144444 0.050000
vt 0.155556 0.050000
vt 0.166667 0.050000
vt 0.177778 0.050000
vt 0.188889 0.050000
vt 0.200000 0.050000
vt 0.211111 0.050000
vt 0.222222 0.050000
vt 0.233333 0.050000
vt 0.244444 0.050000
vt 0.255556 0.050000
vt 0.266667 0.050000
vt 0.277778 0.050000
vt 0.288889 0.050000
vt 0.300000 0.050000
vt 0.311111 0.050000
vt 0.322222 0.050000
vt 0.333333 0.050000
vt 0.344444 0.050000
vt 0.355556 0.050000
vt 0.366667 0.050000
vt 0.377778 0.050000
vt 0.388889 0.050000
vt 0.400000 0.050000
vt 0.411111 0.050000
vt 0.422222 0.050000
vt 0.433333 0.050000
vt 0.444444 0.050000
vt 0.455556 0.050000
vt 0.466667 0.050000
vt 0.477778 0.050000
vt 0.488889 0.050000
vt 0.500000 0.050000
vt 0.511111 0.050000
vt 0.522222 0.050000
vt 0.533333 0.050000
vt 0.544445 0.050000
vt 0.555556 0.050000
vt 0.566667 0.050000
vt 0.577778 0.050000
vt 0.588889 0.050000
vt 0.600000 0.050000
vt 0.611111 0.050000
vt 0.622223 0.050000
vt 0.633334 0.050000
vt 0.644445 0.050000
vt 0.655556 0.050000
vt 0.666667 0.050000
vt 0.677778 0.050000
vt 0.688889 0.050000
vt 0.700001 0.050000
vt 0.711112 0.050000
vt 0.722223 0.050000
vt 0.733334 0.050000
vt 0.744445 0.050000
vt 0.755556 0.050000
vt 0.766667 0.050000
vt 0.777779 0.050000
vt 0.788890 0.050000
vt 0.800001 0.050000
vt 0.811112 0.050000
vt 0.822223 0.050000
vt 0.833334 0.050000
vt 0.844445 0.050000
vt 0.855556 0.050000
vt 0.866668 0.050000
vt 0.877779 0.050000
vt 0.888890 0.050000
vt 0.900001 0.050000
vt 0.911112 0.050000
vt 0.922223 0.050000
vt 0.933334 0.050000
vt 0.944446 0.050000
vt 0.955557 0.050000
vt 0.966668 0.050000
vt 0.977779 0.050000
vt 0.988890 0.050000
vt 1.000001 0.050000
vn 0.000000 1.000000 0.000000
vn -0.000000 1.000000 0.000000
vn -0.000000 1.000000 0.000000
vn 0.000000 1.000000 0.000000
vn 0.000000 1.000000 0.000000
vn 0.000000 1.000000 0.000000
vn 0.000000 1.000000 0.000000
vn 0.000000 1.000000 0.000000
vn 0.000000 1.000000 0.000000
vn 0.000000 1.000000 0.000000
vn 0.000000 1.000000 0.000000
vn 0.000000 1.000000 0.000000
vn 0.000000 1.000000 0.000000
vn 0.000000 1.000000 0.000000
vn 0.000000 1.000000 0.000000
vn 0.000000 1.000000 0.000000
vn 0.000000 1.000000 0.000000
vn 0.000000 1.000000 0.000000
vn 0.000000 1.000000 0.000000
vn 0.000000 1.000000 0.000000
vn 0.000000 1.000000 0.000000
vn 0.000000 1.000000 0.000000
vn 0.000000 1.000000 0.000000
vn 0.000000 1.000000 0.000000
vn 0.000000 1.000000 0.000000
vn 0.000000 1.000000 0.000000
vn 0.000000 1.000000 0.000000
vn 0.000000 1.000000 0.000000
vn 0.000000 1.000000 0.000000
vn 0.000000 1.000000 0.000000
vn 0.000000 1.000000 0.000000
vn 0.000000 1.000000 0.000000
vn 0.000000 1.000000 0.000000
vn 0.000000 1.000000 0.000000
vn 0.000000 1.000000 0.000000
vn 0.000000 1.000000 0.000000
vn 0.000000 1.000000 0.000000
vn 0.000000 1.000000 0.000000
vn 0.000000 1.000000 0.000000
vn 0.000000 1.000000 0.000000
vn 0.000000 1.000000 0.000000
vn 0.000000 1.000000 0.000000
vn 0.000000 1.000000 0.000000
vn 0.000000 1.000000 0.000000
vn 0.000000 1.000000 0.000000
vn 0.000000 1.000000 0.000000
vn 0.000000 1.000000 -0.000000
vn 0.000000 1.000000 -0.000000
vn 0.000000 1.000000 -0.000000
vn 0.000000 1.000000 -0.000000
vn 0.000000 1.000000 -0.000000
vn 0.000000 1.000000 -0.000000
vn 0.000000 1.000000 -0.000000
vn 0.000000 1.000000 -0.000000
vn 0.000000 1.000000 -0.000000
vn 0.000000 1.000000 -0.000000
vn 0.000000 1.000000 -0.000000
vn 0.000000 1.000000 -0.000000
vn 0.000000 1.000000 -0.000000
vn 0.000000 1.000000 -0.000000
vn 0.000000 1.000000 -0.000000
vn 0.000000 1.000000 -0.000000
vn 0.000000 1.000000 -0.000000
vn 0.000000 1.000000 -0.000000
vn 0.000000 1.000000 -0.000000
vn 0.000000 1.000000 -0.000000
vn 0.000000 1.000000 -0.000000
vn 0.000000 1.000000 -0.000000
vn 0.000000 1.000000 -0.000000
vn 0.000000 1.000000 -0.000000
vn 0.000000 1.000000 -0.000000
vn 0.000000 1.000000 -0.000000
vn 0.000000 1.000000 -0.000000
vn 0.000000 1.000000 -0.000000
vn 0.000000 1.000000 -0.000000
vn 0.000000 1.000000 -0.000000
vn 0.000000 1.000000 -0.000000
vn 0.000000 1.000000 -0.000000
vn 0.000000 1.000000 -0.000000
vn 0.000000 1.000000 -0.000000
vn 0.000000 1.000000 -0.000000
vn 0.000000 1.000000 -0.000000
vn 0.000000 1.000000 -0.000000
vn 0.000000 1.000000 -0.000000
vn 0.000000 1.000000 -0.000000
vn 0.000000 1.000000 -0.000000
vn 0.000000 1.000000 -0.000000
vn 0.000000 1.000000 -0.000000
vn 0.000000 1.000000 -0.000000
vn 0.000000 1.000000 -0.000000
vn 0.000000 1.000000 -0.000000
vn 0.000000 1.000000 -0.000000
vn -0.000000 1.000000 -0.000000
vn -0.000000 1.000000 -0.000000
vn -0.000000 1.000000 -0.000000
vn -0.000000 1.000000 -0.000000
vn -0.000000 1.000000 -0.000000
vn -0.000000 1.000000 -0.000000
vn -0.000000 1.000000 -0.000000
vn -0.000000 1.000000 -0.000000
vn -0.000000 1.000000 -0.000000
vn -0.000000 1.000000 -0.000000
vn -0.000000 1.000000 -0.000000
vn -0.000000 1.000000 -0.000000
vn -0.000000 1.000000 -0.000000
vn -0.000000 1.000000 -0.000000
vn -0.000000 1.000000 -0.000000
vn -0.000000 1.000000 -0.000000
vn -0.000000 1.000000 -0.000000
vn -0.000000 1.000000 -0.000000
vn -0.000000 1.000000 -0.000000
vn -0.000000 1.000000 -0.000000
vn -0.000000 1.000000 -0.000000
vn -0.000000 1.000000 -0.000000
vn -0.000000 1.000000 -0.000000
vn -0.000000 1.000000 -0.000000
vn -0.000000 1.000000 -0.000000
vn -0.000000 1.000000 -0.000000
vn -0.000000 1.000000 -0.000000
vn -0.000000 1.000000 -0.000000
vn -0.000000 1.000000 -0.000000
vn -0.000000 1.000000 -0.000000
vn -0.000000 1.000000 -0.000000
vn -0.000000 1.000000 -0.000000
vn -0.000000 1.000000 -0.000000
vn -0.000000 1.000000 -0.000000
vn -0.000000 1.000000 -0.000000
vn -0.000000 1.000000 -0.000000
vn -0.000000 1.000000 -0.000000
vn -0.000000 1.000000 -0.000000
vn -0.000000 1.000000 -0.000000
vn -0.000000 1.000000 -0.000000
vn -0.000000 1.000000 -0.000000
vn -0.000000 1.000000 -0.000000
vn -0.000000 1.000000 -0.000000
vn -0.000000 1.000000 -0.000000
vn -0.000000 1.000000 0.000000
vn -0.000000 1.000000 0.000000
vn -0.000000 1.000000 0.000000
vn -0.000000 1.000000 0.000000
vn -0.000000 1.000000 0.000000
vn -0.000000 1.000000 0.000000
vn -0.000000 1.000000 0.000000
vn -0.000000 1.000000 0.000000
vn -0.000000 1.000000 0.000000
vn -0.000000 1.000000 0.000000
vn -0.000000 1.000000 0.000000
vn -0.000000 1.000000 0.000000
vn -0.000000 1.000000 0.000000
vn -0.000000 1.000000 0.000000
vn -0.000000 1.000000 0.000000
vn -0.000000 1.000000 0.000000
vn -0.000000 1.000000 0.000000
vn -0.000000 1.000000 0.000000
vn -0.000000 1.000000 0.000000
vn -0.000000 1.000000 0.000000
vn -0.000000 1.000000 0.000000
vn -0.000000 1.000000 0.000000
vn -0.000000 1.000000 0.000000
vn -0.000000 1.000000 0.000000
vn -0.000000 1.000000 0.000000
vn -0.000000 1.000000 0.000000
vn -0.000000 1.000000 0.000000
vn -0.000000 1.000000 0.000000
vn -0.000000 1.000000 0.000000
vn -0.000000 1.000000 0.000000
vn -0.000000 1.000000 0.000000
vn -0.000000 1.000000 0.000000
vn -0.000000 1.000000 0.000000
vn -0.000000 1.000000 0.000000
vn -0.000000 1.000000 0.000000
vn -0.000000 1.000000 0.000000
vn -0.000000 1.000000 0.000000
vn -0.000000 1.000000 0.000000
vn -0.000000 1.000000 0.000000
vn -0.000000 1.000000 0.000000
vn -0.000000 1.000000 0.000000
vn -0.000000 1.000000 0.000000
vn -0.000000 1.000000 0.000000
vn -0.000000 1.000000 0.000000
s 1
f 2/2/1 1/1/2 91/92/3 92/93/4
f 3/3/5 2/2/1 92/93/4 93/94/6
f 4/4/7 3/3/5 93/94/6 94/95/8
f 5/5/9 4/4/7 94/95/8 95/96/10
f 6/6/11 5/5/9 95/96/10 96/97/12
f 7/7/13 6/6/11 96/97/12 97/98/14
f 8/8/15 7/7/13 97/98/14 98/99/16
f 9/9/17 8/8/15 98/99/16 99/100/18
f 10/10/19 9/9/17 99/100/18 100/101/20
f 11/11/21 10/10/19 100/101/20 101/102/22
f 12/12/23 11/11/21 101/102/22 102/103/24
f 13/13/25 12/12/23 102/103/24 103/104/26
f 14/14/27 13/13/25 103/104/26 104/105/28
f 15/15/29 14/14/27 104/105/28 105/106/30
f 16/16/31 15/15/29 105/106/30 106/107/32
f 17/17/33 16/16/31 106/107/32 107/108/34
f 18/18/35 17/17/33 107/108/34 108/109/36
f 19/19/37 18/18/35 108/109/36 109/110/38
f 20/20/39 19/19/37 109/110/38 110/111/40
f 21/21/41 20/20/39 110/111/40 111/112/42
f 22/22/43 21/21/41 111/112/42 112/113/44
f 23/23/45 22/22/43 112/113/44 113/114/46
f 24/24/47 23/23/45 113/114/46 114/115/48
f 25/25/49 24/24/47 114/115/48 115/116/50
f 26/26/51 25/25/49 115/116/50 116/117/52
f 27/27/53 26/26/51 116/117/52 117/118/54
f 28/28/55 27/27/53 117/118/54 118/119/56
f 29/29/57 28/28/55 118/119/56 119/120/58
f 30/30/59 29/29/57 119/120/58 120/121/60
f 31/31/61 30/30/59 120/121/60 121/122/62
f 32/32/63 31/31/61 121/122/62 122/123/64
f 33/33/65 32/32/63 122/123/64 123/124/66
f 34/34/67 33/33/65 123/124/66 124/125/68
f 35/35/69 34/34/67 124/125/68 125/126/70
f 36/36/71 35/35/69 125/126/70 126/127/72
f 37/37/73 36/36/71 126/127/72 127/128/74
f 38/38/75 37/37/73 127/128/74 128/129/76
f 39/39/77 38/38/75 128/129/76 129/130/78
f 40/40/79 39/39/77 129/130/78 130/131/80
f 41/41/81 40/40/79 130/131/80 131/132/82
f 42/42/83 41/41/81 131/132/82 132/133/84
f 43/43/85 42/42/83 132/133/84 133/134/86
f 44/44/87 43/43/85 133/134/86 134/135/88
f 45/45/89 44/44/87 134/135/88 135/136/90
f 46/46/91 45/45/89 135/136/90 136/137/92
f 47/47/93 46/46/91 136/137/92 137/138/94
f 48/48/95 47/47/93 137/138/94 138/139/96
f 49/49/97 48/48/95 138/139/96 139/140/98
f 50/50/99 49/49/97 139/140/98 140/141/100
f 51/51/101 50/50/99 140/141/100 141/142/102
f 52/52/103 51/51/101 141/142/102 142/143/104
f 53/53/105 52/52/103 142/143/104 143/144/106
f 54/54/107 53/53/105 143/144/106 144/145/108
f 55/55/109 54/54/107 144/145/108 145/146/110
f 56/56/111 55/55/109 145/146/110 146/147/112
f 57/57/113 56/56/111 146/147/112 147/148/114
f 58/58/115 57/57/113 147/148/114 148/149/116
f 59/59/117 58/58/115 148/149/116 149/150/118
f 60/60/119 59/59/117 149/150/118 150/151/120
f 61/61/121 60/60/119 150/151/120 151/152/122
f 62/62/123 61/61/121 151/152/122 152/153/124
f 63/63/125 62/62/123 152/153/124 153/154/126
f 64/64/127 63/63/125 153/154/126 154/155/128
f 65/65/129 64/64/127 154/155/128 155/156/130
f 66/66/131 65/65/129 155/156/130 156/157/132
f 67/67/133 66/66/131 156/157/132 157/158/134
f 68/68/135 67/67/133 157/158/134 158/159/136
f 69/69/137 68/68/135 158/159/136 159/160/138
f 70/70/139 69/69/137 159/160/138 160/161/140
f 71/71/141 70/70/139 160/161/140 161/162/142
f 72/72/143 71/71/141 161/162/142 162/163/144
f 73/73/145 72/72/143 162/163/144 163/164/146
f 74/74/147 73/73/145 163/164/146 164/165/148
f 75/75/149 74/74/147 164/165/148 165/166/150
f 76/76/151 75/75/149 165/166/150 166/167/152
f 77/77/153 76/76/151 166/167/152 167/168/154
f 78/78/155 77/77/153 167/168/154 168/169/156
f 79/79/157 78/78/155 168/169/156 169/170/158
f 80/80/159 79/79/157 169/170/158 170/171/160
f 81/81/161 80/80/159 170/171/160 171/172/162
f 82/82/163 81/81/161 171/172/162 172/173/164
f 83/83/165 82/82/163 172/173/164 173/174/166
f 84/84/167 83/83/165 173/174/166 174/175/168
f 85/85/169 84/84/167 174/175/168 175/176/170
f 86/86/171 85/85/169 175/176/170 176/177/172
f 87/87/173 86/86/171 176/177/172 177/178/174
f 88/88/175 87/87/173 177/178/174 178/179/176
f 89/89/177 88/88/175 178/179/176 179/180/178
f 90/90/179 89/89/177 179/180/178 180/181/180
f 1/91/2 90/90/179 180/181/180 91/182/3
